<?xml version="1.0" standalone="no"?>
<!DOCTYPE svg PUBLIC "-//W3C//DTD SVG 20010904//EN"
 "http://www.w3.org/TR/2001/REC-SVG-20010904/DTD/svg10.dtd">
<svg version="1.0" xmlns="http://www.w3.org/2000/svg"
 width="1536.000000pt" height="1536.000000pt" viewBox="0 0 1536.000000 1536.000000"
 preserveAspectRatio="xMidYMid meet">
<metadata>
Created by potrace 1.14, written by Peter Selinger 2001-2017
</metadata>
<g transform="translate(0.000000,1536.000000) scale(0.100000,-0.100000)"
fill="#000000" stroke="none">
<path d="M9610 13574 c-19 -7 -53 -13 -75 -14 -22 0 -62 -7 -89 -15 -27 -8
-68 -15 -91 -15 -24 0 -62 -7 -85 -15 -23 -8 -55 -15 -70 -15 -15 0 -44 -7
-63 -15 -20 -8 -52 -15 -70 -15 -19 0 -51 -7 -70 -15 -20 -8 -49 -15 -66 -15
-16 0 -42 -7 -57 -15 -16 -8 -46 -15 -66 -15 -21 0 -55 -6 -75 -14 -21 -7 -63
-21 -93 -29 -30 -9 -79 -23 -109 -31 -29 -9 -63 -16 -75 -16 -11 0 -30 -7 -40
-15 -11 -8 -31 -15 -45 -15 -14 0 -39 -7 -55 -15 -15 -8 -34 -15 -41 -15 -7 0
-26 -7 -41 -15 -16 -8 -40 -15 -52 -15 -13 0 -36 -6 -50 -14 -15 -7 -43 -21
-62 -29 -97 -43 -300 -144 -336 -169 -23 -15 -45 -28 -49 -28 -4 0 -24 -13
-44 -28 -20 -16 -43 -32 -51 -35 -8 -4 -28 -16 -45 -27 -16 -11 -40 -24 -52
-30 -13 -5 -23 -14 -23 -20 0 -5 -7 -10 -15 -10 -8 0 -15 -4 -15 -9 0 -5 -13
-14 -30 -20 -16 -5 -30 -15 -30 -20 0 -6 -4 -11 -10 -11 -5 0 -18 -8 -28 -17
-10 -10 -41 -37 -68 -60 -28 -23 -79 -69 -113 -102 -35 -34 -65 -61 -68 -61
-9 0 -193 -190 -193 -200 0 -5 -4 -10 -9 -10 -4 0 -28 -27 -52 -60 -24 -33
-47 -60 -50 -60 -4 0 -10 -13 -14 -30 -4 -16 -11 -30 -16 -30 -5 0 -9 -6 -9
-12 -1 -7 -14 -24 -30 -38 -17 -13 -30 -34 -30 -46 0 -13 -5 -26 -11 -29 -5
-4 -15 -17 -20 -28 -5 -12 -18 -35 -29 -52 -10 -16 -35 -64 -55 -105 -62 -130
-105 -209 -116 -216 -5 -3 -9 -13 -9 -23 0 -10 -7 -24 -15 -31 -8 -7 -15 -20
-15 -29 0 -9 -7 -29 -15 -45 -8 -15 -15 -37 -15 -47 0 -10 -4 -20 -10 -24 -5
-3 -14 -20 -19 -38 -13 -44 -40 -118 -51 -142 -4 -11 -11 -39 -13 -61 -3 -23
-16 -64 -29 -91 -14 -27 -28 -74 -32 -105 -4 -31 -18 -87 -31 -124 -14 -38
-25 -85 -25 -104 0 -19 -5 -53 -11 -75 -12 -48 -37 -202 -49 -300 -11 -100
-29 -202 -46 -261 -8 -28 -14 -66 -14 -84 0 -32 -21 -107 -45 -165 -8 -16 -16
-63 -19 -104 -4 -47 -15 -91 -30 -120 -16 -34 -25 -72 -29 -141 -4 -52 -16
-124 -28 -160 -18 -56 -27 -115 -44 -270 -6 -53 -7 -367 -1 -414 3 -22 8 -216
11 -431 4 -214 10 -406 15 -425 5 -19 14 -71 19 -115 6 -44 15 -100 20 -125 6
-25 10 -71 11 -102 0 -31 4 -59 9 -63 5 -3 12 -31 16 -63 3 -31 10 -65 15 -74
6 -10 13 -42 16 -73 4 -30 10 -55 15 -55 5 0 13 -18 19 -40 6 -21 15 -42 20
-45 6 -3 10 -14 10 -24 0 -10 6 -31 14 -47 7 -16 22 -48 32 -71 11 -23 25 -43
32 -43 6 0 12 -6 12 -14 0 -8 7 -16 15 -20 8 -3 15 -11 15 -18 1 -17 67 -89
102 -111 15 -9 35 -17 45 -17 10 0 27 -7 37 -15 14 -10 45 -15 98 -15 130 0
92 -33 -68 -59 -28 -5 -61 -14 -72 -20 -11 -6 -38 -11 -59 -11 -37 0 -104 -18
-171 -46 -18 -8 -42 -14 -53 -14 -21 0 -69 -18 -121 -46 -14 -8 -35 -14 -46
-14 -11 0 -22 -3 -24 -7 -5 -11 -66 -53 -77 -53 -5 0 -11 -3 -13 -7 -1 -5 -22
-21 -45 -37 -24 -16 -43 -33 -43 -37 0 -5 -6 -9 -12 -9 -7 -1 -24 -14 -38 -30
-13 -17 -29 -30 -36 -30 -17 0 -241 -224 -249 -249 -3 -11 -11 -21 -16 -21 -5
0 -9 -4 -9 -9 0 -6 -13 -25 -30 -43 -16 -18 -30 -38 -30 -46 0 -7 -7 -15 -15
-18 -8 -4 -15 -12 -15 -20 0 -8 -4 -14 -9 -14 -4 0 -28 -27 -52 -60 -24 -33
-47 -60 -51 -60 -5 0 -8 -5 -8 -10 0 -12 -41 -73 -52 -78 -5 -2 -8 -10 -8 -18
0 -8 -4 -14 -9 -14 -12 0 -81 -110 -81 -130 0 -10 -4 -20 -8 -22 -10 -3 -34
-46 -53 -90 -6 -16 -15 -28 -20 -28 -5 0 -9 -7 -9 -16 0 -16 -24 -65 -46 -94
-6 -8 -15 -26 -19 -40 -4 -14 -10 -27 -14 -30 -8 -6 -34 -62 -56 -120 -9 -25
-23 -58 -31 -73 -8 -16 -14 -46 -14 -67 0 -22 -6 -54 -14 -72 -28 -68 -36
-107 -30 -147 4 -23 2 -46 -4 -53 -5 -7 -13 -102 -17 -212 -4 -110 -11 -213
-16 -230 -5 -17 -9 -102 -9 -188 0 -132 -2 -158 -15 -158 -15 0 -96 -39 -105
-50 -3 -4 -17 -10 -32 -14 -16 -3 -28 -11 -28 -16 0 -6 -8 -10 -18 -10 -11 0
-39 -11 -63 -25 -24 -14 -51 -28 -59 -31 -61 -26 -100 -47 -100 -55 0 -5 -5
-9 -10 -9 -6 0 -23 -11 -38 -26 -21 -20 -33 -24 -57 -19 -16 3 -57 10 -90 14
-33 5 -75 13 -94 20 -20 6 -52 8 -75 4 -23 -4 -44 -6 -47 -6 -3 1 -64 7 -135
13 -175 15 -338 0 -459 -42 -16 -6 -59 -14 -95 -18 -36 -4 -81 -12 -100 -18
-19 -6 -82 -25 -140 -42 -58 -17 -126 -38 -151 -46 -26 -8 -58 -14 -71 -14
-13 0 -33 -7 -44 -15 -10 -8 -28 -14 -39 -15 -23 0 -108 -26 -145 -45 -14 -7
-41 -15 -61 -18 -20 -3 -61 -17 -91 -31 -30 -14 -61 -26 -69 -26 -8 0 -26 -13
-39 -30 -14 -16 -29 -29 -33 -30 -5 0 -15 -7 -23 -15 -9 -8 -28 -15 -43 -15
-15 0 -54 -13 -86 -30 -32 -16 -67 -30 -78 -30 -17 0 -37 -9 -97 -41 -8 -4
-35 -18 -59 -30 -25 -12 -52 -29 -60 -36 -9 -7 -33 -28 -55 -45 -44 -37 -86
-99 -86 -127 0 -35 -27 -51 -86 -51 -31 0 -65 -5 -77 -12 -12 -6 -35 -15 -52
-19 -56 -14 -109 -37 -113 -48 -2 -6 -8 -11 -14 -11 -20 0 -74 -50 -90 -84
-38 -77 -47 -105 -64 -201 -9 -55 -19 -105 -21 -112 -6 -14 -77 -53 -98 -53
-8 0 -15 -4 -15 -10 0 -5 -11 -12 -25 -16 -13 -3 -29 -12 -36 -20 -6 -8 -22
-14 -35 -14 -13 0 -24 -4 -24 -10 0 -5 -11 -12 -25 -16 -13 -3 -29 -12 -36
-20 -6 -8 -19 -14 -29 -14 -10 0 -23 -7 -30 -15 -7 -8 -20 -15 -30 -15 -10 0
-23 -7 -30 -15 -7 -8 -21 -15 -32 -15 -10 0 -21 -7 -24 -15 -4 -8 -16 -15 -28
-15 -11 0 -30 -7 -40 -15 -11 -8 -26 -15 -34 -15 -7 0 -20 -7 -28 -15 -9 -8
-25 -15 -38 -15 -12 0 -31 -7 -42 -15 -10 -8 -27 -15 -36 -15 -18 0 -75 -28
-96 -47 -7 -7 -19 -13 -26 -13 -8 0 -19 -7 -26 -15 -7 -8 -21 -15 -32 -15 -10
0 -21 -7 -24 -15 -4 -8 -10 -15 -15 -15 -5 0 -18 -8 -29 -17 -20 -17 -20 -28
-20 -915 l0 -898 660 0 660 0 0 68 c0 37 7 94 15 127 8 34 15 113 15 180 1 66
6 156 11 200 5 44 12 188 15 320 3 132 10 274 16 315 5 41 14 199 18 350 5
151 13 322 19 380 6 58 10 147 11 198 0 51 5 112 10 135 6 23 14 83 19 132 23
219 44 329 80 405 51 111 236 228 450 286 33 9 58 11 64 5 11 -11 5 -124 -11
-201 -23 -117 -34 -190 -42 -290 -6 -58 -14 -134 -19 -170 -6 -36 -10 -128
-10 -206 0 -93 -6 -160 -16 -199 -8 -33 -15 -86 -15 -120 0 -33 -5 -76 -11
-95 -5 -19 -14 -83 -19 -141 -5 -59 -14 -119 -20 -133 -5 -15 -10 -53 -10 -84
0 -31 -6 -95 -14 -142 -20 -117 -36 -252 -47 -398 -4 -68 -13 -140 -19 -160
-5 -20 -10 -66 -11 -102 0 -36 -5 -90 -10 -120 -5 -30 -13 -113 -19 -185 -5
-71 -14 -150 -19 -175 -5 -25 -12 -75 -15 -112 l-5 -68 543 0 542 0 13 72 c7
40 16 123 21 183 5 61 13 134 19 164 6 29 11 113 12 185 0 72 5 158 10 191 5
33 14 122 19 199 5 76 14 154 20 175 5 20 10 63 10 96 0 33 7 85 15 115 8 30
15 91 15 135 0 44 7 109 15 145 9 41 14 125 15 231 0 124 4 178 15 210 13 36
14 56 5 111 -5 38 -8 85 -4 106 3 20 9 123 14 227 29 646 43 856 60 899 10 26
79 66 114 66 13 0 41 6 62 14 48 17 244 29 299 18 l40 -8 -3 -59 c-2 -32 -10
-77 -18 -100 -7 -22 -14 -52 -14 -66 0 -15 -6 -44 -13 -65 -8 -22 -17 -75 -21
-119 -3 -43 -10 -104 -16 -135 -5 -30 -16 -100 -25 -155 -9 -55 -22 -134 -30
-175 -22 -118 -49 -376 -59 -555 -3 -66 -19 -176 -35 -245 -6 -25 -11 -70 -11
-102 0 -31 -7 -92 -15 -135 -8 -43 -15 -103 -15 -133 -1 -30 -5 -75 -11 -100
-5 -25 -14 -79 -18 -120 -5 -41 -14 -102 -20 -135 -11 -62 -28 -217 -41 -365
-4 -47 -12 -116 -19 -155 -14 -91 -30 -256 -41 -429 -4 -76 -13 -143 -19 -149
-6 -6 -11 -17 -11 -24 0 -11 1064 -13 5890 -13 5122 0 5890 2 5890 14 0 8 -4
18 -10 21 -5 3 -10 17 -10 30 0 13 -4 25 -10 27 -5 2 -14 26 -19 55 -6 29 -14
60 -19 70 -23 43 -42 95 -42 111 0 9 -7 26 -15 36 -8 11 -15 30 -15 42 0 12
-7 36 -15 53 -8 17 -22 45 -30 62 -8 17 -15 36 -15 43 0 35 -137 254 -197 314
-7 7 -13 20 -13 28 0 8 -7 17 -15 20 -8 4 -15 10 -15 15 0 13 -39 68 -67 96
-13 12 -23 27 -23 33 0 5 -3 10 -8 10 -4 0 -27 27 -51 60 -24 33 -48 60 -52
60 -5 0 -9 7 -9 15 0 8 -4 15 -9 15 -5 0 -14 12 -20 27 -6 16 -15 35 -20 43
-13 23 -32 81 -41 125 -4 22 -18 65 -30 95 -12 30 -24 66 -27 80 -5 24 -22 68
-50 122 -7 14 -13 44 -13 66 0 22 -5 42 -11 44 -5 2 -13 22 -16 46 -3 23 -9
42 -14 42 -4 0 -11 17 -14 37 -3 21 -13 53 -21 71 -8 18 -14 40 -14 50 0 9 -7
30 -15 46 -8 15 -15 34 -15 42 0 7 -6 28 -14 46 -8 18 -22 62 -31 98 -9 36
-22 74 -28 85 -6 11 -14 36 -18 55 -7 37 -23 83 -46 137 -7 17 -13 37 -13 45
0 7 -7 22 -15 32 -8 11 -15 28 -15 38 0 9 -6 32 -14 50 -8 18 -17 40 -20 48
-4 8 -15 29 -26 45 -11 17 -23 38 -26 48 -4 9 -10 17 -14 17 -5 0 -13 13 -19
30 -5 16 -15 30 -20 30 -6 0 -11 7 -11 15 0 8 -5 15 -10 15 -6 0 -15 10 -20
22 -6 13 -14 31 -20 41 -17 28 -28 50 -52 96 -13 24 -28 46 -35 48 -7 3 -13
11 -13 19 0 8 -4 14 -9 14 -5 0 -26 27 -47 60 -21 33 -41 60 -45 60 -4 0 -18
17 -30 38 -13 20 -42 63 -66 94 -24 31 -43 61 -43 67 0 6 -4 11 -9 11 -4 0
-21 19 -37 43 -16 23 -32 44 -36 45 -5 2 -8 9 -8 16 0 7 -13 25 -30 41 -16 16
-30 34 -30 41 0 6 -6 17 -14 24 -8 6 -31 44 -50 84 -19 39 -47 82 -61 96 -14
13 -25 30 -25 37 0 8 -7 16 -15 19 -8 4 -15 10 -15 16 0 5 -10 19 -22 31 -30
29 -68 83 -68 97 0 5 -4 10 -9 10 -5 0 -14 12 -20 27 -6 16 -15 35 -20 43 -5
8 -12 22 -15 30 -4 8 -15 29 -26 45 -10 17 -29 50 -42 74 -12 24 -28 46 -35
48 -7 3 -13 11 -13 19 0 8 -4 14 -10 14 -5 0 -21 20 -36 45 -14 25 -30 45 -35
45 -5 0 -9 6 -9 14 0 8 -7 16 -15 20 -8 3 -15 10 -15 16 0 12 -111 163 -144
195 -34 33 -103 85 -114 85 -5 0 -12 7 -16 15 -3 8 -13 15 -21 15 -9 0 -42 19
-73 43 -31 23 -73 51 -92 61 -38 21 -53 35 -88 84 l-23 33 20 67 c11 37 25 92
31 122 6 30 18 68 26 83 8 16 14 39 14 51 0 12 6 30 13 41 20 31 62 179 79
283 6 34 15 62 20 62 4 0 8 18 8 40 0 22 6 57 14 77 8 21 17 62 20 92 3 29 9
58 14 65 5 6 12 66 14 133 6 157 8 158 133 158 70 0 97 4 118 18 14 9 32 17
40 17 7 0 26 13 42 30 16 16 34 30 41 30 6 0 14 7 18 15 3 8 13 15 22 15 9 0
41 11 70 25 59 28 144 117 144 151 0 12 7 27 15 34 8 7 15 25 15 41 0 16 6 55
14 87 23 92 46 290 46 394 0 61 5 110 14 130 17 41 37 178 46 323 4 61 12 123
18 138 7 16 12 45 12 66 0 20 5 42 11 48 6 6 14 35 19 64 4 30 20 86 34 124
14 39 26 79 26 91 0 11 7 29 15 40 8 10 14 35 15 54 0 19 6 55 14 80 27 84 46
169 46 207 0 21 7 65 15 98 17 71 19 167 4 215 -5 19 -14 87 -20 150 -5 63
-13 153 -19 200 -5 47 -9 144 -9 217 -1 72 -6 144 -11 159 -6 15 -13 106 -16
203 -3 97 -12 208 -19 248 -7 40 -13 116 -14 170 -1 54 -8 130 -16 168 -8 39
-15 102 -15 140 0 39 -7 95 -15 125 -9 32 -15 99 -15 161 0 61 -4 109 -11 116
-6 6 -14 35 -19 64 -14 86 -31 161 -45 199 -7 19 -18 51 -25 70 -6 19 -15 51
-19 70 -4 19 -12 44 -18 55 -13 26 -34 83 -40 115 -3 14 -12 34 -19 45 -8 11
-14 28 -14 37 0 10 -4 26 -10 36 -5 9 -21 42 -35 72 -14 30 -35 69 -46 85 -10
17 -24 42 -30 58 -6 15 -15 27 -20 27 -5 0 -9 5 -9 11 0 6 -13 31 -30 56 -16
24 -30 51 -30 59 0 8 -7 17 -15 20 -8 4 -15 11 -15 16 0 6 -13 27 -30 48 -16
21 -30 41 -30 45 0 4 -15 24 -32 45 -53 60 -88 102 -88 105 0 9 -63 77 -124
135 -39 36 -89 84 -113 108 -24 23 -46 42 -49 42 -3 0 -17 13 -32 28 -33 35
-135 112 -182 138 -19 10 -39 25 -43 32 -4 6 -13 12 -19 12 -5 0 -27 13 -47
29 -20 16 -54 39 -76 51 -22 12 -53 30 -70 41 -16 10 -39 23 -50 28 -11 5 -33
21 -48 35 -15 14 -30 26 -33 26 -3 0 -31 20 -63 44 -32 25 -75 54 -97 66 -21
12 -52 30 -69 41 -16 10 -39 23 -50 29 -11 6 -40 22 -64 35 -24 14 -50 25 -57
25 -11 0 -51 18 -94 42 -8 4 -22 11 -30 14 -8 3 -28 12 -45 19 -75 35 -111 45
-157 45 -28 0 -64 6 -81 14 -18 8 -84 19 -147 25 -139 13 -221 26 -246 39 -11
5 -54 10 -97 11 -44 1 -95 8 -114 16 -20 8 -61 15 -92 15 -33 1 -64 7 -75 15
-11 8 -40 15 -65 15 -25 0 -77 7 -116 15 -82 18 -117 17 -165 -1z m82 -101
c-19 -9 -36 -23 -39 -30 -4 -10 -9 -11 -19 -2 -25 20 5 49 51 49 l40 0 -33
-17z m135 6 c7 -7 61 -15 122 -18 105 -6 109 -7 96 -25 -13 -17 -15 -17 -31
-2 -16 16 -29 17 -97 3 -10 -2 -23 -10 -28 -18 -7 -11 -9 -11 -9 4 0 12 -8 17
-31 17 -24 0 -32 -6 -40 -28 -5 -15 -18 -33 -28 -39 -18 -11 -20 -8 -26 27
-15 91 -16 90 24 90 21 0 42 -5 48 -11z m-319 -39 c-7 -11 -16 -20 -19 -20 -4
0 -10 -16 -13 -35 -4 -19 -11 -35 -17 -35 -6 0 -7 -4 -4 -10 7 -11 -43 -26
-53 -15 -4 4 -1 10 6 12 6 3 12 12 12 21 1 25 35 93 43 85 4 -3 7 -1 7 5 0 7
11 12 25 12 23 0 24 -2 13 -20z m-169 -35 c-13 -13 -32 -25 -42 -25 -11 0 -16
-5 -12 -12 4 -7 0 -4 -9 6 -12 15 -18 17 -30 7 -16 -13 -36 -7 -36 11 0 6 16
9 40 6 22 -2 40 0 40 4 0 5 -6 8 -12 9 -23 1 27 18 56 18 l28 1 -23 -25z m868
19 c-3 -3 -12 -4 -19 -1 -8 3 -5 6 6 6 11 1 17 -2 13 -5z m-590 -26 c-3 -8 -6
-5 -6 6 -1 11 2 17 5 13 3 -3 4 -12 1 -19z m-30 -10 c-3 -8 -6 -5 -6 6 -1 11
2 17 5 13 3 -3 4 -12 1 -19z m-308 -43 c2 -2 -8 -7 -23 -11 -14 -3 -26 -10
-26 -15 0 -5 7 -6 15 -3 8 4 15 2 15 -4 0 -5 -9 -12 -21 -15 -12 -3 -18 -10
-14 -16 3 -6 0 -11 -9 -11 -8 0 -17 -6 -19 -12 -3 -7 -6 -3 -6 10 -1 13 3 20
9 17 6 -3 10 4 10 17 0 18 -2 20 -10 8 -7 -11 -10 -7 -10 18 l0 33 43 -6 c23
-4 44 -8 46 -10z m-535 -240 c-7 -18 -20 -19 -30 -3 -4 7 -3 8 4 4 7 -4 12 -2
12 3 0 6 4 11 10 11 5 0 7 -7 4 -15z m1091 -546 c11 -11 -100 -20 -156 -13
-43 6 -49 9 -29 14 31 8 176 7 185 -1z m-319 -13 c7 -8 14 -19 14 -24 0 -6 7
-12 15 -16 8 -3 15 -10 15 -15 0 -9 -44 -8 -118 1 -7 1 -11 7 -8 15 4 8 -3 13
-18 13 -19 0 -23 4 -19 18 6 24 96 30 119 8z m-685 -46 c13 0 43 -29 37 -36
-3 -2 -26 -5 -52 -6 -38 0 -44 -3 -35 -14 9 -11 8 -14 -4 -14 -8 0 -20 -7 -27
-15 -8 -10 -29 -14 -64 -13 -44 1 -62 -4 -113 -35 -33 -20 -68 -37 -77 -37 -9
0 -16 -4 -16 -10 0 -5 -7 -10 -15 -10 -8 0 -15 -9 -15 -19 0 -11 -6 -21 -12
-24 -16 -5 -15 -110 1 -115 28 -9 7 -22 -36 -22 -35 0 -44 3 -33 10 13 8 12
10 -2 10 -10 0 -18 5 -18 10 0 6 3 9 8 9 20 -3 32 2 26 12 -3 6 0 15 7 20 10
6 11 9 2 9 -16 0 -17 47 -1 52 6 2 13 15 15 28 2 14 10 28 18 33 8 4 15 19 15
31 0 28 17 36 73 36 29 0 54 8 79 25 26 18 50 25 83 25 44 0 95 22 95 41 0 5
8 17 18 27 13 14 19 15 25 5 4 -7 13 -13 18 -13z m1472 18 c14 -15 17 -205 4
-225 -11 -17 -58 -16 -82 2 -15 12 -18 25 -16 63 1 26 7 49 12 50 5 2 9 30 9
63 l0 59 31 0 c17 0 36 -6 42 -12z m60 5 c-7 -2 -21 -2 -30 0 -10 3 -4 5 12 5
17 0 24 -2 18 -5z m127 -34 c0 -5 7 -9 15 -9 9 0 15 -9 15 -25 0 -14 -4 -25
-10 -25 -5 0 -10 7 -10 15 0 11 -12 15 -44 15 -30 0 -46 5 -50 15 -3 8 -13 15
-23 15 -12 0 -14 3 -6 8 15 10 113 2 113 -9z m-1537 -1 c4 -10 7 -10 18 0 7 6
24 12 39 11 21 0 22 -1 6 -8 -11 -4 -21 -18 -23 -31 -5 -32 -11 -36 -33 -22
-11 7 -28 12 -37 12 -10 0 -24 4 -32 9 -12 8 -12 11 0 25 17 18 56 21 62 4z
m727 -27 c0 -4 -11 -6 -25 -3 -14 2 -25 6 -25 8 0 2 11 4 25 4 14 0 25 -4 25
-9z m180 -11 c0 -13 -7 -20 -19 -20 -10 0 -24 -6 -30 -14 -17 -20 -51 -27 -57
-11 -3 8 -19 17 -35 20 -47 11 -23 25 41 25 32 0 62 5 65 10 11 18 35 11 35
-10z m-513 -16 c-3 -3 -12 -4 -19 -1 -8 3 -5 6 6 6 11 1 17 -2 13 -5z m637
-43 c-8 -9 -22 12 -17 26 6 15 7 14 13 -3 4 -10 6 -21 4 -23z m-1057 -23 c-2
-13 -4 -5 -4 17 -1 22 1 32 4 23 2 -10 2 -28 0 -40z m-85 -41 c-9 -35 -64 -88
-87 -85 -14 2 -19 9 -17 23 2 11 7 22 12 25 4 3 10 15 14 26 8 26 67 58 77 42
4 -5 4 -20 1 -31z m-147 -7 c8 -14 -21 -24 -42 -15 -17 7 -16 8 2 15 27 12 33
12 40 0z m265 -15 c0 -16 -6 -25 -16 -25 -11 0 -14 5 -10 16 3 9 6 20 6 25 0
5 5 9 10 9 6 0 10 -11 10 -25z m1874 4 c-4 -7 -8 -30 -10 -52 -5 -57 -33 -78
-93 -70 -59 8 -78 30 -46 55 13 10 30 18 39 18 8 0 19 6 23 13 8 12 69 45 86
46 5 1 5 -4 1 -10z m-2234 -26 c-8 -3 -27 -18 -42 -34 -28 -30 -38 -35 -38
-21 0 21 47 61 70 61 15 -1 19 -3 10 -6z m244 -34 c-3 -5 -10 -7 -15 -3 -5 3
-7 10 -3 15 3 5 10 7 15 3 5 -3 7 -10 3 -15z m2143 5 c-3 -3 -12 -4 -19 -1 -8
3 -5 6 6 6 11 1 17 -2 13 -5z m-2462 -54 c3 -5 -1 -10 -9 -10 -9 0 -16 5 -16
10 0 6 4 10 9 10 6 0 13 -4 16 -10z m149 1 c3 -5 -7 -11 -22 -14 -30 -6 -45 0
-37 14 8 12 52 12 59 0z m1204 -42 c-15 -8 -18 -25 -18 -109 0 -93 -1 -100
-20 -100 -14 0 -20 7 -20 24 0 13 4 26 10 28 5 2 13 38 16 80 l7 76 -29 5
c-18 2 -10 4 21 5 38 1 46 -1 33 -9z m-668 -122 c0 -93 -14 -124 -37 -80 -15
29 -17 85 -4 111 5 9 12 25 15 35 3 9 10 17 16 17 6 0 10 -33 10 -83z m-2353
51 c-3 -8 -6 -5 -6 6 -1 11 2 17 5 13 3 -3 4 -12 1 -19z m1874 4 c15 -18 14
-19 -18 -20 -20 -1 -31 3 -28 8 3 6 14 10 23 10 15 0 15 2 2 10 -8 5 -10 10
-5 10 6 0 18 -8 26 -18z m1325 -9 c-4 -8 -9 -40 -13 -70 -6 -56 -6 -56 -20
-28 -11 20 -12 30 -4 38 6 6 11 28 11 49 0 30 3 36 16 31 8 -3 13 -12 10 -20z
m-649 -55 c-2 -13 -4 -5 -4 17 -1 22 1 32 4 23 2 -10 2 -28 0 -40z m-609 -156
c21 -7 13 -22 -11 -22 -13 0 -28 -5 -35 -12 -8 -8 -15 -8 -25 0 -8 7 -16 9
-20 6 -9 -9 3 37 19 73 8 17 14 45 14 62 0 18 7 34 18 40 15 9 18 2 23 -67 3
-45 10 -77 17 -80z m1804 148 c41 -19 73 -40 61 -40 -7 0 -33 -21 -58 -47 -25
-25 -45 -42 -43 -37 4 15 -26 54 -42 55 -10 0 -11 2 -2 6 6 2 12 17 12 32 0
15 3 31 7 34 9 10 38 8 65 -3z m-1221 -57 c-8 -15 -10 -15 -11 -2 0 17 10 32
18 25 2 -3 -1 -13 -7 -23z m-781 -34 c0 -16 -30 -43 -53 -46 -12 -2 -24 -8
-28 -14 -3 -6 -17 -9 -30 -7 -31 4 -38 37 -10 45 12 3 21 9 21 14 0 7 30 14
78 18 12 0 22 -4 22 -10z m-240 -61 c0 -23 -3 -29 -9 -19 -8 12 -4 51 5 51 2
0 4 -15 4 -32z m3164 -54 c25 -9 19 -24 -9 -24 -16 0 -25 6 -25 15 0 16 9 19
34 9z m-3164 -41 c0 -31 2 -33 33 -33 18 0 37 4 43 8 5 4 27 5 49 2 l40 -5
-34 -18 c-50 -25 -105 -22 -135 8 -14 14 -21 25 -16 25 6 0 10 5 10 11 0 5 -4
7 -10 4 -5 -3 -10 2 -10 13 0 10 7 19 15 19 10 0 15 -11 15 -34z m837 -225
c-3 -7 -5 -2 -5 12 0 14 2 19 5 13 2 -7 2 -19 0 -25z m219 6 c-3 -9 -6 -32 -6
-52 -1 -28 -3 -33 -10 -21 -11 19 -1 89 12 89 6 0 7 -7 4 -16z m-156 -28 c0
-19 -4 -38 -10 -41 -6 -4 -10 10 -10 34 0 23 5 41 10 41 6 0 10 -15 10 -34z
m-270 -33 c0 -51 14 -72 23 -35 3 9 5 1 6 -19 1 -52 12 -99 21 -94 9 5 23
-105 15 -113 -7 -8 -58 23 -67 40 -4 7 -9 21 -12 31 -4 11 -16 17 -36 17 -28
0 -30 2 -20 20 6 11 15 18 20 15 6 -4 7 6 4 23 -4 17 -1 32 5 36 7 5 9 22 5
46 -8 49 1 87 21 87 12 0 15 -13 15 -54z m-424 10 c-3 -54 -16 -93 -30 -93 -7
0 -22 -14 -34 -30 -18 -24 -21 -34 -12 -51 9 -16 14 -18 26 -8 8 6 17 9 20 6
4 -3 9 -47 12 -97 4 -85 4 -90 -15 -90 -14 0 -19 7 -19 21 1 12 -6 24 -14 27
-13 5 -13 3 -1 -11 9 -12 10 -17 2 -17 -7 0 -10 -4 -7 -8 3 -5 -1 -9 -8 -9 -8
0 -16 16 -20 38 -10 63 -36 99 -78 105 -20 4 -39 12 -41 19 -4 8 3 10 18 7 50
-9 90 69 66 131 -8 20 -18 27 -38 28 l-28 2 28 4 c16 3 37 13 48 24 10 10 28
19 39 19 11 0 20 5 20 10 0 6 15 10 34 10 33 0 34 -1 32 -37z m644 7 c0 -5 -2
-10 -4 -10 -3 0 -8 5 -11 10 -3 6 -1 10 4 10 6 0 11 -4 11 -10z m-393 -52 c-3
-7 -5 -2 -5 12 0 14 2 19 5 13 2 -7 2 -19 0 -25z m-487 -75 c0 -53 -1 -56 -16
-37 -8 10 -12 13 -8 5 5 -9 3 -12 -4 -7 -7 4 -12 21 -12 37 0 18 4 28 10 24 6
-3 10 3 10 14 0 12 5 21 10 21 6 0 10 -26 10 -57z m477 38 c1 -14 -3 -17 -19
-13 -20 5 -20 6 -3 19 11 7 19 13 20 13 0 0 1 -8 2 -19z m-2271 -256 c-3 -71
-6 -140 -6 -153 0 -13 -4 -21 -9 -17 -5 3 -13 0 -17 -7 -14 -22 -22 31 -22
142 -1 125 9 196 26 193 7 -2 12 3 13 10 0 6 5 1 11 -13 6 -16 8 -74 4 -155z
m-126 -110 c-7 -38 -8 -36 -8 20 -1 40 2 53 7 40 5 -11 5 -38 1 -60z m2530
-181 c0 -8 -7 -14 -15 -14 -15 0 -21 21 -9 33 10 9 24 -2 24 -19z m-100 -19
c0 -8 -4 -15 -10 -15 -5 0 -7 7 -4 15 4 8 8 15 10 15 2 0 4 -7 4 -15z m-120
-35 c0 -5 -5 -10 -11 -10 -5 0 -7 5 -4 10 3 6 8 10 11 10 2 0 4 -4 4 -10z
m1195 -35 c22 -8 51 -15 64 -15 28 0 151 -39 166 -52 5 -4 17 -8 27 -8 10 0
43 -13 72 -29 30 -15 65 -31 80 -35 14 -3 26 -11 26 -16 0 -6 9 -10 19 -10 11
0 26 -6 33 -14 8 -7 24 -17 36 -20 12 -4 22 -12 22 -17 0 -5 5 -9 11 -9 6 0
25 -11 42 -24 18 -13 52 -34 77 -48 25 -13 63 -35 85 -49 22 -15 50 -29 61
-33 12 -4 33 -17 47 -30 14 -13 31 -26 38 -30 33 -17 62 -35 68 -43 3 -4 24
-17 46 -28 22 -11 48 -27 58 -36 9 -9 29 -22 44 -30 15 -8 35 -22 45 -31 10
-10 25 -18 33 -18 8 0 15 -4 15 -8 0 -5 27 -26 60 -47 33 -21 60 -42 60 -47 0
-4 5 -8 10 -8 14 0 110 -72 110 -82 0 -4 4 -8 9 -8 6 0 22 -11 37 -25 15 -14
41 -36 57 -48 16 -12 63 -55 104 -94 41 -40 76 -73 78 -73 5 0 105 -91 119
-108 6 -8 26 -29 44 -48 17 -19 32 -39 32 -44 0 -6 4 -10 9 -10 12 0 141 -128
141 -140 0 -4 4 -10 9 -12 12 -4 81 -96 81 -108 0 -6 4 -10 9 -10 5 0 23 -23
40 -50 17 -28 40 -58 51 -67 11 -10 20 -22 20 -27 0 -5 6 -17 13 -25 29 -36
39 -89 26 -141 -11 -41 -10 -56 5 -107 10 -32 24 -72 32 -90 8 -17 14 -42 14
-56 0 -25 27 -86 44 -98 4 -4 12 -35 16 -70 5 -35 15 -93 24 -129 9 -36 21
-101 27 -145 6 -44 17 -95 26 -113 11 -26 14 -76 14 -220 0 -191 -7 -268 -22
-278 -5 -3 -9 -22 -9 -42 0 -20 -7 -46 -15 -56 -8 -11 -15 -34 -15 -50 0 -17
-6 -43 -14 -57 -7 -14 -16 -42 -20 -62 -4 -21 -11 -37 -16 -37 -6 0 -10 -16
-10 -35 0 -20 -6 -48 -14 -63 -7 -15 -16 -55 -19 -89 -4 -35 -11 -71 -16 -80
-12 -24 -32 -106 -42 -172 -4 -29 -12 -65 -17 -80 -6 -14 -17 -75 -26 -136 -9
-60 -21 -132 -27 -160 -5 -27 -14 -109 -19 -182 -6 -73 -15 -144 -20 -158 -6
-15 -10 -41 -10 -60 0 -18 -6 -55 -14 -81 -8 -27 -19 -74 -25 -104 -28 -131
-59 -255 -70 -278 -8 -16 -15 -41 -42 -147 -6 -22 -14 -44 -20 -50 -5 -5 -9
-15 -9 -23 0 -27 -128 -292 -141 -292 -4 0 -10 -11 -13 -25 -4 -14 -11 -25
-16 -25 -6 0 -10 -7 -10 -15 0 -9 -7 -18 -15 -21 -8 -4 -15 -11 -15 -16 0 -8
-65 -95 -81 -108 -4 -3 -9 -15 -13 -27 -4 -13 -12 -23 -17 -23 -5 0 -9 -7 -9
-15 0 -9 -7 -18 -15 -21 -8 -4 -15 -12 -15 -20 0 -8 -3 -14 -7 -14 -5 0 -21
-20 -36 -45 -16 -25 -32 -45 -35 -45 -4 0 -18 -17 -32 -37 -27 -41 -55 -76
-82 -105 -10 -10 -18 -20 -18 -23 0 -5 -87 -121 -110 -146 -8 -9 -26 -32 -40
-50 -14 -18 -33 -41 -42 -51 -10 -10 -18 -22 -18 -28 0 -5 -4 -10 -8 -10 -4 0
-16 -14 -26 -31 -10 -17 -40 -54 -67 -82 -27 -28 -52 -59 -55 -69 -3 -10 -10
-18 -15 -18 -5 0 -9 -5 -9 -12 0 -6 -20 -31 -45 -55 -25 -23 -45 -45 -45 -47
0 -19 -326 -346 -345 -346 -2 0 -24 -19 -48 -42 -86 -82 -168 -138 -202 -138
-8 0 -15 -4 -15 -10 0 -5 -12 -13 -27 -16 -16 -4 -37 -13 -48 -20 -11 -8 -29
-14 -40 -14 -12 0 -26 -5 -31 -10 -6 -6 -73 -15 -150 -20 -76 -6 -164 -13
-194 -16 -107 -13 -710 42 -735 67 -5 5 -23 9 -41 9 -48 0 -203 55 -224 79 -7
9 -38 27 -90 53 -25 12 -64 35 -86 50 -23 15 -45 28 -49 28 -3 0 -12 6 -20 13
-30 28 -56 47 -65 47 -6 0 -13 7 -16 15 -4 8 -11 15 -16 15 -12 0 -109 79
-150 122 -15 15 -29 28 -31 28 -15 0 -341 319 -455 446 -82 90 -94 105 -137
162 -21 28 -43 52 -47 52 -4 0 -8 6 -8 14 0 8 -3 16 -7 18 -14 5 -83 96 -83
107 0 6 -4 11 -10 11 -5 0 -21 20 -36 45 -14 25 -30 45 -35 45 -5 0 -9 6 -9
14 0 8 -6 16 -13 19 -7 2 -21 22 -32 43 -11 22 -26 43 -32 47 -7 4 -13 15 -13
22 0 8 -4 15 -9 15 -5 0 -13 10 -17 23 -4 12 -9 24 -13 27 -13 11 -51 70 -51
80 0 5 -4 10 -9 10 -5 0 -13 10 -17 22 -3 12 -19 39 -35 61 -16 22 -29 46 -29
54 0 7 -4 13 -9 13 -5 0 -12 13 -16 30 -4 16 -11 30 -16 30 -5 0 -11 11 -15
25 -3 13 -12 29 -20 36 -8 6 -14 20 -14 31 0 11 -7 26 -15 34 -8 9 -15 24 -15
35 0 10 -4 19 -9 19 -5 0 -13 15 -16 33 -4 17 -11 37 -15 42 -4 6 -17 44 -30
85 -12 41 -27 86 -33 100 -12 31 -25 84 -42 180 -7 41 -18 91 -24 110 -6 19
-11 52 -11 73 0 21 -5 47 -10 57 -6 11 -15 66 -20 122 -5 57 -14 128 -19 158
-5 30 -10 91 -10 135 -1 44 -6 121 -12 170 -5 50 -14 137 -19 195 -18 201 -48
340 -72 340 -12 0 -11 8 -17 -164 l-6 -159 -50 -28 c-56 -31 -93 -35 -145 -16
-44 17 -100 50 -100 60 0 4 -6 7 -13 7 -8 0 -25 10 -38 21 -13 12 -34 28 -46
36 -23 15 -94 147 -123 231 l-19 53 30 92 c16 51 29 100 29 109 0 14 21 57 88
184 7 13 17 24 21 24 9 0 41 -94 41 -121 0 -10 5 -21 11 -24 5 -4 14 -17 20
-28 17 -41 61 -97 75 -97 3 0 12 -7 20 -15 9 -8 31 -15 49 -15 19 0 37 -4 40
-10 10 -16 25 -11 25 9 0 10 -18 30 -42 47 -52 35 -108 94 -108 114 0 8 -7 24
-15 34 -8 11 -15 34 -15 52 0 17 -7 45 -15 60 -20 39 -20 157 0 174 8 7 15 18
15 25 0 8 6 26 14 42 8 15 30 60 48 98 25 51 40 71 56 73 14 2 24 -3 28 -15 3
-10 11 -27 17 -38 7 -12 14 -87 17 -180 3 -100 10 -168 18 -182 6 -12 12 -35
12 -50 0 -16 7 -38 15 -49 8 -10 15 -41 15 -69 0 -61 9 -97 22 -89 6 4 6 64 1
157 -11 215 -6 441 13 555 9 53 19 136 22 184 4 48 13 93 20 100 6 6 12 20 12
30 0 18 65 148 79 158 4 3 10 12 14 20 4 8 12 24 19 35 22 39 28 50 38 73 5
12 14 22 19 22 5 0 12 8 15 18 13 34 37 72 47 72 5 0 9 8 9 19 0 10 7 24 15
31 8 7 15 17 15 22 0 6 14 27 30 48 17 21 30 42 30 48 0 5 6 12 13 15 6 3 21
22 32 43 11 22 25 43 32 47 7 4 13 14 13 20 0 7 13 27 29 45 16 17 32 41 36
52 3 11 11 20 16 20 5 0 9 7 9 15 0 9 7 18 15 21 8 4 15 12 15 20 0 8 4 14 9
14 4 0 28 27 52 60 24 33 47 60 51 60 5 0 8 7 8 15 0 8 4 15 8 15 5 0 28 27
52 60 24 33 47 60 52 60 4 0 8 4 8 10 0 5 15 24 33 43 17 18 66 69 107 113
148 157 189 200 236 239 27 22 56 48 66 57 10 10 35 30 55 45 21 16 52 41 70
56 17 16 48 37 69 49 22 11 44 25 49 31 6 7 26 20 45 31 19 10 40 24 45 30 6
6 27 20 49 31 21 11 40 26 43 33 3 6 11 12 18 12 7 0 15 7 19 15 3 8 12 15 19
15 8 0 20 7 27 15 7 8 23 15 36 15 12 0 25 4 28 9 9 13 89 51 109 51 9 0 17 5
17 10 0 6 5 10 12 10 6 0 32 9 57 21 25 11 62 27 81 36 19 8 47 22 62 29 14 8
33 14 41 14 9 0 17 4 19 10 2 5 23 14 48 19 45 10 119 31 175 50 69 23 139 41
159 41 12 0 27 5 33 11 6 6 48 14 94 19 46 5 100 13 119 19 57 15 299 12 345
-4z m-1675 -235 c0 -5 -5 -10 -11 -10 -5 0 -7 5 -4 10 3 6 8 10 11 10 2 0 4
-4 4 -10z m-177 -170 c-3 -11 -14 -20 -24 -20 -18 0 -18 1 -1 19 23 25 31 26
25 1z m4404 -3082 c-3 -7 -5 -2 -5 12 0 14 2 19 5 13 2 -7 2 -19 0 -25z m390
-30 c-2 -13 -4 -5 -4 17 -1 22 1 32 4 23 2 -10 2 -28 0 -40z m-412 -20 c-3
-17 -9 -36 -15 -42 -5 -5 -10 -17 -10 -26 0 -23 -46 -75 -54 -62 -9 15 29 112
45 112 4 0 10 11 13 25 9 36 25 31 21 -7z m105 -128 c12 -12 20 -33 20 -54 0
-18 7 -50 15 -69 21 -51 20 -194 -2 -249 -35 -88 -131 -194 -186 -205 -15 -3
-30 -10 -33 -14 -8 -14 -81 -11 -87 4 -11 30 26 381 42 402 5 5 12 25 16 43 4
19 13 32 22 32 16 0 123 107 123 122 0 16 51 7 70 -12z m306 -114 c-4 -22 -10
-73 -14 -112 -6 -51 -15 -78 -30 -94 l-22 -24 -1 25 c-7 105 8 181 47 246 22
38 29 24 20 -41z m-1600 -2798 c-3 -13 -8 -40 -11 -60 -3 -21 -10 -38 -15 -38
-6 0 -10 -12 -10 -27 0 -16 -7 -41 -15 -57 -8 -15 -15 -36 -15 -45 0 -10 -7
-26 -15 -37 -8 -10 -15 -28 -15 -39 0 -11 -9 -38 -20 -60 -11 -22 -19 -46 -20
-52 0 -7 -4 -13 -10 -13 -5 0 -10 -9 -10 -19 0 -17 -11 -43 -41 -101 -5 -8
-21 -39 -36 -67 -15 -29 -30 -53 -34 -53 -4 0 -10 -11 -13 -25 -4 -14 -11 -25
-16 -25 -6 0 -10 -5 -10 -11 0 -6 -13 -28 -30 -49 -16 -21 -30 -43 -30 -49 0
-7 -7 -14 -15 -17 -8 -4 -15 -10 -15 -15 0 -11 -69 -103 -81 -107 -5 -2 -9 -8
-9 -13 0 -11 -35 -62 -67 -99 -13 -13 -23 -28 -23 -31 0 -5 -13 -22 -50 -66
-5 -7 -10 -17 -10 -23 0 -5 -4 -10 -9 -10 -4 0 -28 -27 -52 -60 -24 -33 -47
-60 -51 -60 -5 0 -8 -6 -8 -12 0 -7 -15 -29 -33 -49 -67 -77 -87 -101 -87
-108 0 -7 -12 -23 -50 -68 -5 -7 -10 -17 -10 -23 0 -5 -5 -10 -11 -10 -7 0
-17 -7 -24 -17 -15 -20 -71 -20 -94 1 -10 9 -21 16 -24 16 -11 0 -130 84 -167
118 -19 18 -43 35 -52 38 -10 3 -18 9 -18 14 0 4 -8 10 -17 14 -10 3 -25 10
-33 15 -8 5 -50 25 -92 46 -43 20 -80 41 -83 46 -4 5 -13 9 -21 9 -15 0 -76
39 -82 53 -2 4 -11 7 -19 7 -9 0 -38 14 -65 30 -26 17 -52 30 -57 30 -4 0 -26
13 -49 30 -23 16 -56 38 -74 48 -18 10 -51 29 -73 43 -22 15 -50 29 -62 33
-13 4 -23 12 -23 17 0 5 -9 9 -20 9 -27 0 -103 41 -93 50 4 5 31 4 58 -1 28
-6 79 -14 114 -19 36 -5 78 -14 95 -19 17 -5 108 -12 201 -16 94 -4 179 -7
190 -8 58 -5 346 16 380 28 22 7 65 20 95 30 86 27 231 103 238 124 2 6 9 11
15 11 7 0 28 14 47 31 19 17 50 44 68 60 19 16 35 29 37 29 6 0 221 217 242
243 20 26 119 140 146 168 9 11 17 23 17 29 0 5 6 13 13 17 7 4 23 25 36 46
12 20 27 37 32 37 5 0 9 4 9 10 0 5 15 25 33 44 46 49 57 64 57 76 0 6 7 13
15 16 8 4 15 12 15 20 0 8 9 14 20 14 16 0 19 -5 16 -22z"/>
<path d="M8964 11486 c-3 -7 -1 -29 4 -47 l10 -34 1 48 c1 47 -5 60 -15 33z"/>
<path d="M8010 9255 c-19 -7 -46 -14 -60 -14 -14 -1 -34 -7 -45 -14 -11 -7
-46 -22 -77 -32 -32 -11 -58 -22 -58 -26 0 -3 -19 -19 -42 -35 -65 -44 -191
-174 -212 -219 -10 -22 -23 -48 -28 -58 -5 -11 -8 -21 -6 -23 6 -6 48 8 48 16
0 11 101 115 112 115 5 0 13 7 18 15 5 8 10 12 11 8 1 -5 3 -12 4 -18 1 -5 3
-14 4 -18 2 -13 34 -10 49 5 19 19 32 16 32 -7 0 -16 7 -20 38 -21 l37 -2 -40
-6 c-37 -6 -38 -7 -15 -15 24 -7 22 -8 -18 -19 -24 -7 -40 -15 -36 -20 4 -4 0
-7 -9 -7 -8 0 -22 -6 -29 -13 -7 -7 -31 -24 -53 -37 -50 -30 -85 -62 -79 -72
7 -11 64 -10 64 1 0 5 10 13 23 16 31 9 91 38 98 49 4 4 24 12 45 16 39 7 97
21 184 42 78 20 393 22 469 4 36 -8 92 -18 124 -22 109 -12 34 -52 -101 -53
-46 -1 -93 -6 -104 -12 -11 -6 -57 -13 -102 -16 -80 -5 -162 -25 -201 -50 -11
-7 -29 -13 -41 -13 -12 0 -27 -7 -34 -15 -7 -8 -23 -15 -36 -15 -13 0 -24 -4
-24 -8 0 -5 -26 -28 -59 -51 -32 -23 -68 -60 -80 -82 -22 -39 -22 -39 -2 -39
12 0 21 7 21 15 0 8 7 15 15 15 8 0 15 7 15 15 0 8 7 15 15 15 8 0 15 7 15 15
0 8 9 15 19 15 11 0 22 4 25 9 11 17 133 67 196 80 19 4 51 13 70 18 85 27
146 35 315 43 183 10 348 1 369 -20 5 -5 15 -10 22 -10 11 0 78 -30 121 -54
13 -7 34 -25 47 -39 14 -15 28 -27 31 -27 3 0 13 -8 23 -17 10 -10 29 -25 42
-33 12 -8 28 -19 34 -25 23 -19 54 -34 60 -28 15 15 2 40 -44 85 -27 26 -52
48 -55 48 -3 0 -24 20 -48 44 -23 24 -61 54 -84 66 -24 12 -43 26 -43 31 0 14
62 10 94 -6 15 -8 48 -15 72 -15 25 0 56 -7 70 -16 26 -18 96 -13 121 8 19 15
17 114 -2 122 -8 3 -15 12 -15 21 0 8 7 15 15 15 8 0 15 -7 15 -15 0 -8 7 -15
15 -15 26 0 17 43 -18 83 -19 20 -37 37 -42 37 -4 0 -13 6 -19 14 -17 22 -126
76 -152 76 -12 0 -26 4 -29 10 -10 16 -95 50 -125 50 -16 0 -41 6 -57 14 -46
23 -126 46 -158 46 -16 0 -50 6 -75 14 -65 21 -143 36 -235 46 -44 5 -96 13
-115 19 -50 16 -267 13 -310 -4z m178 -62 c-10 -2 -28 -2 -40 0 -13 2 -5 4 17
4 22 1 32 -1 23 -4z m-185 -30 c-7 -2 -21 -2 -30 0 -10 3 -4 5 12 5 17 0 24
-2 18 -5z m482 -3 c-8 -13 -55 -13 -75 0 -11 7 -2 10 33 10 30 0 46 -4 42 -10z
m782 -246 c-9 -9 -28 6 -21 18 4 6 10 6 17 -1 6 -6 8 -13 4 -17z m-329 -141
c-10 -2 -28 -2 -40 0 -13 2 -5 4 17 4 22 1 32 -1 23 -4z"/>
<path d="M11155 8984 c-27 -7 -75 -14 -105 -14 -30 0 -66 -7 -80 -15 -14 -8
-37 -14 -52 -15 -15 0 -33 -7 -42 -15 -8 -8 -30 -15 -48 -15 -19 0 -43 -7 -54
-15 -10 -8 -27 -15 -37 -15 -17 0 -71 -24 -125 -54 -13 -8 -36 -26 -52 -41
-25 -24 -29 -36 -29 -79 0 -28 -1 -60 -3 -71 -3 -19 3 -20 86 -23 63 -2 101 2
128 13 42 16 105 20 127 6 9 -6 -2 -11 -33 -15 -25 -4 -58 -14 -74 -22 -15 -7
-34 -14 -42 -14 -18 0 -147 -83 -173 -111 -22 -24 -16 -51 10 -43 32 10 87 39
101 52 7 6 22 12 32 12 10 0 20 4 22 10 4 11 101 30 178 35 49 4 52 3 28 -7
-16 -7 -28 -15 -28 -19 0 -9 -77 -49 -94 -49 -7 0 -19 -7 -26 -15 -7 -8 -20
-15 -30 -15 -10 0 -20 -7 -24 -15 -3 -8 -10 -15 -15 -15 -5 0 -25 -13 -43 -30
-18 -16 -38 -30 -46 -30 -7 0 -15 -7 -18 -15 -4 -8 -10 -15 -15 -15 -19 0 -49
-41 -49 -66 0 -26 0 -26 63 -19 34 4 72 11 85 16 36 14 116 11 155 -6 20 -8
56 -15 80 -15 25 0 64 -7 87 -15 23 -8 54 -15 69 -15 15 0 37 -8 51 -17 33
-23 345 -22 402 1 21 9 49 16 63 16 14 0 28 7 31 15 4 8 18 15 34 15 37 0 61
10 54 21 -6 10 -83 1 -99 -12 -6 -4 -39 -9 -74 -10 -72 -3 -83 6 -57 46 9 13
17 50 18 82 l3 58 30 -3 c17 -2 37 -10 45 -17 8 -7 27 -15 43 -19 15 -3 27
-11 27 -16 0 -6 5 -10 11 -10 17 0 69 -57 69 -75 0 -8 5 -15 11 -15 7 0 30
-15 53 -33 23 -19 51 -36 63 -39 56 -14 -23 83 -154 192 -57 47 -125 84 -171
95 -18 3 -32 10 -32 15 0 4 -13 10 -30 14 -16 3 -30 10 -30 16 0 16 104 12
152 -6 46 -17 170 -76 178 -84 3 -3 21 -17 40 -30 19 -13 47 -37 63 -54 56
-63 60 -67 68 -55 4 6 -2 27 -13 45 -22 38 -140 151 -172 165 -11 5 -34 18
-51 29 -88 57 -116 66 -295 95 -129 21 -240 33 -335 36 l-80 2 100 9 c55 4
206 9 335 10 196 1 243 -2 280 -15 25 -9 66 -17 91 -17 25 0 68 -7 95 -15 27
-8 65 -15 84 -15 19 0 68 -9 109 -20 80 -21 116 -18 132 12 10 19 -5 88 -20
88 -7 0 -35 89 -33 103 1 4 -2 7 -7 7 -5 0 -7 16 -5 36 5 41 -16 74 -47 74
-10 0 -24 7 -33 15 -8 8 -23 15 -33 15 -11 0 -24 5 -30 11 -7 7 -47 19 -90 27
-111 22 -686 27 -758 6z m185 -59 c0 -9 -64 -45 -80 -45 -13 0 -13 2 -1 9 10
7 -4 12 -47 17 -98 11 -83 24 27 24 56 0 101 -2 101 -5z m270 -6 c-24 -10
-207 -5 -218 6 -3 3 51 5 119 4 94 0 118 -3 99 -10z m-710 -53 c0 -9 -30 -14
-35 -6 -4 6 3 10 14 10 12 0 21 -2 21 -4z m-110 -36 c-20 -13 -40 -13 -40 0 0
6 12 10 28 10 21 0 24 -2 12 -10z m-61 -31 c-18 -11 -39 -11 -39 0 0 11 31 20
44 13 4 -2 2 -8 -5 -13z m585 13 c2 -4 -5 -9 -17 -9 -17 -2 -19 0 -7 7 18 12
18 12 24 2z m-74 -18 c0 -2 -9 -4 -20 -4 -11 0 -20 4 -20 9 0 5 9 7 20 4 11
-3 20 -7 20 -9z m-115 -4 c-3 -5 1 -10 10 -10 9 0 13 5 10 10 -3 6 -1 10 4 10
6 0 11 -7 11 -16 0 -10 -7 -14 -22 -12 -22 3 -39 28 -18 28 6 0 8 -4 5 -10z
m698 -47 c-7 -2 -19 -2 -25 0 -7 3 -2 5 12 5 14 0 19 -2 13 -5z m-516 -209
c-3 -3 -12 -4 -19 -1 -8 3 -5 6 6 6 11 1 17 -2 13 -5z m106 -1 c-7 -2 -21 -2
-30 0 -10 3 -4 5 12 5 17 0 24 -2 18 -5z m-431 -145 c2 -44 9 -73 16 -76 7 -2
12 -17 12 -34 l0 -30 -67 6 c-105 8 -252 24 -286 32 l-31 6 27 15 c15 7 27 18
27 23 0 6 6 10 14 10 8 0 16 7 20 15 3 8 14 15 25 15 11 0 22 4 25 9 4 5 27
19 54 31 26 11 58 27 72 35 14 7 39 14 56 14 l32 1 4 -72z m184 18 c8 -32 -11
-66 -37 -66 -23 0 -38 32 -31 67 6 34 59 33 68 -1z"/>
<path d="M8377 8679 c-89 -5 -135 -12 -152 -23 -13 -9 -31 -16 -39 -16 -8 0
-29 -8 -48 -17 -18 -9 -45 -22 -60 -30 -14 -7 -37 -13 -51 -13 -14 0 -32 -7
-41 -15 -8 -8 -21 -15 -29 -15 -8 0 -20 -7 -27 -15 -7 -8 -16 -15 -21 -15 -11
0 -139 -129 -139 -141 0 -20 57 -8 90 21 19 16 39 29 43 30 4 0 19 12 32 26
22 23 89 64 107 64 4 0 27 14 51 30 30 20 57 30 82 30 34 0 37 -2 30 -22 -18
-57 -17 -78 6 -115 13 -21 27 -41 32 -44 5 -4 6 -12 3 -18 -10 -16 -78 -13
-100 4 -11 8 -31 15 -44 15 -13 0 -30 7 -38 15 -17 17 -60 20 -69 6 -3 -5 5
-13 17 -17 12 -3 28 -13 36 -20 7 -8 23 -14 35 -14 12 0 31 -7 41 -15 11 -8
32 -15 46 -15 15 0 42 -8 61 -17 29 -15 65 -18 254 -18 190 0 225 2 254 18 28
14 60 17 172 17 126 0 173 8 133 24 -27 10 -252 7 -325 -5 -38 -7 -72 -9 -76
-6 -6 7 2 20 50 80 23 30 29 46 29 92 l1 55 37 0 c21 0 43 -7 50 -15 7 -8 21
-15 31 -15 11 0 19 -4 19 -10 0 -5 11 -12 25 -16 14 -3 25 -10 25 -15 0 -5 10
-14 23 -19 53 -24 147 -108 147 -133 0 -34 107 -66 125 -37 6 10 -29 50 -44
50 -5 0 -23 14 -39 30 -17 17 -35 30 -42 30 -6 0 -13 7 -16 15 -4 8 -12 15
-19 15 -7 0 -15 7 -19 15 -3 8 -11 15 -18 15 -8 0 -28 14 -46 30 -18 17 -37
30 -41 30 -5 0 -14 7 -21 15 -7 8 -21 15 -31 15 -9 0 -24 7 -33 15 -8 8 -19
15 -24 15 -5 0 -15 6 -21 14 -6 8 -33 17 -59 21 -26 4 -51 10 -57 14 -10 8
-146 32 -162 30 -4 -1 -66 -5 -136 -10z m29 -116 c19 -26 17 -38 -12 -72 -27
-33 -54 -41 -54 -16 0 8 -4 15 -9 15 -17 0 -23 42 -10 66 15 29 65 33 85 7z"/>
<path d="M9021 7001 c-53 -53 -81 -147 -81 -268 1 -83 3 -91 33 -135 32 -46
113 -108 142 -108 8 0 29 8 47 18 39 22 107 27 157 11 87 -27 129 -58 251
-180 69 -69 135 -129 148 -133 12 -4 22 -12 22 -17 0 -5 8 -9 18 -9 9 0 30 -7
46 -15 15 -8 44 -15 63 -15 56 0 187 46 221 78 7 6 18 12 23 12 9 0 58 48 144
141 57 61 99 92 134 97 14 2 32 7 42 13 10 5 40 9 67 9 125 0 179 26 225 107
22 40 24 170 2 199 -8 10 -15 26 -15 34 0 40 -66 140 -91 140 -11 0 -19 -2
-19 -5 0 -12 35 -75 42 -75 4 0 8 -9 8 -19 0 -11 6 -26 13 -33 7 -7 18 -42 24
-78 13 -78 2 -116 -46 -165 l-33 -34 -111 2 c-94 1 -118 -2 -147 -18 -55 -31
-109 -74 -185 -147 -82 -78 -119 -108 -134 -108 -6 0 -11 -3 -11 -8 0 -12 -95
-42 -133 -42 -20 0 -49 5 -64 11 -76 31 -120 55 -138 78 -24 31 -29 36 -129
126 -43 39 -86 73 -95 78 -9 4 -36 19 -61 33 -28 15 -68 27 -105 31 -62 5
-145 -10 -145 -27 0 -18 -53 -10 -86 12 -54 37 -64 64 -64 175 0 72 4 105 15
119 8 10 15 26 15 34 0 9 13 30 29 47 65 72 31 103 -38 34z"/>
<path d="M12071 6164 c0 -11 3 -14 6 -6 3 7 2 16 -1 19 -3 4 -6 -2 -5 -13z"/>
<path d="M8126 6081 c-11 -17 6 -42 78 -117 39 -40 81 -84 92 -96 44 -47 177
-168 185 -168 5 0 9 -4 9 -9 0 -4 19 -21 43 -37 23 -16 44 -32 45 -36 2 -5 8
-8 14 -8 11 0 91 -62 125 -97 12 -13 26 -23 32 -23 5 0 16 -6 23 -12 19 -18
69 -48 91 -55 9 -3 17 -9 17 -14 0 -5 6 -9 14 -9 8 0 16 -6 19 -13 3 -7 28
-24 56 -37 28 -14 51 -28 51 -32 0 -5 7 -8 15 -8 9 0 18 -6 21 -14 3 -8 13
-17 22 -20 9 -3 24 -9 32 -14 15 -9 70 -34 125 -56 17 -7 46 -20 65 -29 19 -9
47 -19 63 -23 15 -3 30 -10 33 -15 3 -5 16 -9 28 -9 13 0 40 -7 59 -15 20 -8
50 -15 66 -15 17 0 50 -7 75 -15 60 -21 443 -27 455 -7 4 7 25 15 47 18 41 6
112 30 154 51 14 7 32 13 41 13 9 0 22 7 29 15 7 8 23 15 36 15 13 0 24 5 24
10 0 6 6 10 13 10 6 0 34 16 61 35 27 19 54 35 58 35 5 0 15 6 22 13 8 6 22
18 32 25 30 20 158 110 169 119 6 5 22 14 38 20 15 7 27 17 27 23 0 5 4 10 10
10 5 0 38 28 74 63 35 34 85 80 111 102 61 51 66 56 112 112 21 26 58 56 83
67 52 25 91 56 84 68 -8 12 -39 10 -71 -6 -51 -25 -126 -39 -263 -47 -74 -4
-171 -15 -215 -23 -44 -8 -109 -20 -145 -26 -36 -6 -74 -15 -85 -20 -11 -5
-47 -12 -80 -15 -33 -4 -67 -11 -75 -15 -8 -5 -40 -10 -70 -13 -70 -7 -67 -6
-51 -16 9 -6 0 -8 -25 -8 -22 0 -42 6 -46 11 -5 8 -8 8 -8 0 0 -6 -12 -9 -29
-6 -30 4 -93 -17 -86 -29 3 -3 -19 -9 -48 -12 -28 -4 -53 -11 -55 -17 -2 -6
-47 -10 -111 -10 -91 0 -117 4 -172 25 -35 14 -91 28 -124 32 -33 3 -70 13
-82 20 -12 8 -41 17 -64 19 -45 4 -118 23 -134 35 -6 4 -36 11 -68 14 -32 4
-71 13 -85 21 -15 8 -37 14 -49 14 -13 0 -23 4 -23 9 0 4 -28 12 -61 15 -34 4
-69 11 -78 15 -17 9 -199 66 -241 76 -14 4 -47 17 -75 30 -27 12 -70 28 -95
35 -93 24 -167 41 -224 50 -32 5 -64 14 -69 19 -13 13 -64 14 -71 2z m519
-198 c17 -3 58 -18 93 -34 34 -16 70 -29 80 -29 9 0 30 -7 46 -15 15 -8 38
-15 50 -15 12 0 31 -7 42 -15 10 -8 29 -15 42 -15 13 0 33 -6 45 -12 22 -13
83 -27 217 -53 41 -7 99 -18 129 -24 30 -6 59 -15 65 -21 5 -5 28 -10 51 -10
22 0 54 -8 70 -17 26 -14 64 -17 282 -16 179 0 256 3 266 12 8 6 46 14 83 17
38 3 86 12 107 20 20 8 50 14 65 14 15 0 32 4 38 10 5 5 43 12 84 16 41 4 80
11 87 16 6 5 45 12 86 15 l74 6 -5 -97 c-3 -64 -11 -109 -22 -131 -18 -36 -79
-86 -144 -120 -21 -11 -40 -26 -43 -32 -3 -7 -9 -13 -15 -13 -5 0 -16 -7 -24
-15 -9 -8 -24 -15 -34 -15 -10 0 -22 -5 -25 -10 -8 -13 -89 -50 -110 -50 -8 0
-34 -13 -57 -30 -46 -33 -121 -42 -131 -16 -8 21 -46 8 -53 -18 -3 -11 -17
-30 -32 -41 -25 -19 -41 -20 -233 -19 -168 1 -211 5 -237 18 -17 9 -42 16 -55
16 -14 0 -38 7 -53 15 -16 8 -39 15 -51 15 -38 0 -123 55 -123 80 0 6 -19 10
-42 10 -24 0 -52 7 -62 15 -11 8 -31 15 -45 15 -16 1 -35 12 -51 30 -13 17
-33 30 -43 30 -20 0 -75 27 -92 46 -20 21 -93 74 -103 74 -6 0 -12 4 -14 9 -4
12 -96 81 -108 81 -6 0 -10 4 -10 10 0 5 -20 21 -45 36 -25 14 -45 30 -45 35
0 5 -6 9 -14 9 -16 0 -26 27 -31 85 -1 22 -6 64 -10 94 -7 51 -7 54 11 46 10
-4 33 -10 49 -12z"/>
</g>
</svg>
